<svg xmlns="http://www.w3.org/2000/svg" width="500" height="500">
  <path fill="#010101" d="m398 47 2.9 2c23.5 17.5 44.9 40 60.1 65l2 3a239 239 0 0 1 15 28.1q8.4 18 14 36.9l.6 2a142 142 0 0 1 3.4 14l.6 2.8A255 255 0 0 1 460 388l-1.9 2.9-5.1 7.1-2 2.9a233 233 0 0 1-65 60.1l-3 2q-12.5 7.8-26 14l-2.1 1q-18 8.4-36.9 14l-2 .6q-7 2-14 3.4l-2.8.6A255 255 0 0 1 112 460l-2.9-1.9-7.1-5.1-2.9-2A233 233 0 0 1 39 386l-2-3q-7.7-12.5-14-26l-1-2.1q-8.3-18-14-36.9l-.6-2A142 142 0 0 1 4 302l-.6-2.8A255 255 0 0 1 40 112l1.9-2.9L47 102l2-2.9C66.6 75.6 89 54.2 114 39l3-2q12.6-7.7 26-14l2.1-1q18-8.3 36.9-14l2-.6c71-21.7 155.1-4 214 39.6m-203-4.3-2.8.8Q177.7 47.9 164 54l-2.4 1a199 199 0 0 0-59.4 40.7A207 207 0 0 0 56 160l-1 2.2A232 232 0 0 0 39.7 209l-.5 2.2c-2.4 11.8-2.4 23.8-2.4 35.9v7.8a180 180 0 0 0 5.6 47.5C46 316.8 51.5 330.7 58 344l1.2 2.7c9.1 19.4 23 36.9 37.8 52.3l1.4 1.5c22.7 24 51 40 81.6 51.5l2 .8c8 3 16.3 5 24.7 7l2.8.6c12.5 2.6 24.9 2.8 37.5 2.8h7.8c15.3 0 30.3-1 45.1-4.9l3.1-.8q14.3-3.8 28-9.5l2.5-1A213 213 0 0 0 444 340l1-2.2a232 232 0 0 0 15.3-46.8l.5-2.2c2.4-11.8 2.4-23.8 2.4-35.8v-7.8c0-15.2-1-30.2-4.8-45l-.8-3c-9-34-25.3-64.9-49.3-90.7q-3-3.1-5.7-6.6A181 181 0 0 0 344 58l-5.6-2.7a203 203 0 0 0-44-15l-2.7-.7a138 138 0 0 0-29.1-2.7h-2.9l-15-.1a174 174 0 0 0-49.8 6"/>
  <path fill="#010101" d="M346 91a198 198 0 0 1 29.5 23.5l5.1 4.9c9.5 9 17.1 18.8 24.4 29.6l2.2 3.3A184 184 0 0 1 429 202l.6 2c5 17.5 6 36 5.4 54v2c-.5 20.4-3.9 50.9-19 66-4.8 4-9 4.4-15 4.4h-2.1c-7 0-12-2.7-16.9-7.4q-2.9-4.9-5.5-10l-9.9-19.7-26-52q-6-12-12.1-23.8a1069 1069 0 0 1-16-31.7l-7.3-14.5c-3.7-7.2-7-13.6-15.2-16.3-2-.2-2-.2-4-.1h-2c-2.2 0-2.2 0-5 1.1-8.6.8-16 .5-23-5a29 29 0 0 1-7.5-21c1-8 4.9-15 8.5-22l1.3-2.5C273.5 75.7 273.5 75.7 283 71c19.2-5.7 47 10.1 63 20M218.8 74.5c5.3 3.6 8.3 8.4 10.2 14.5 2 13.8-6 26.4-12.2 38.1l-5.7 11-1.1 2q-3.8 7.6-7.4 15.3-4.7 9.9-9.9 19.6-5.3 10.2-10.5 20.6l-7.7 15.4-3.2 6.3-1.6 3.3-3.6 7.2q-7.7 15.4-15.7 30.8a2112 2112 0 0 0-23.8 47.3c-8 16.2-8 16.2-12.1 19.4l-1.7 1.4c-6.4 4.6-14.2 4.4-21.8 3.3-7-2.7-11.8-8.2-14.9-15q-1.2-3-2.2-6.4l-.7-2.4L71 299l-.6-2.1C57 250.4 66 198.8 89 157q4.5-7.4 9.7-14.2l3.5-5A169 169 0 0 1 150.8 93c16.8-11.5 47.9-29.9 68-18.5M232.2 338.7h30.6l68.5-.3h29.3c7.8 0 14 1 20.4 5.6a27 27 0 0 1 8.4 18.2c-.4 11-6.2 17.3-13.7 24.5-2.7 2.3-2.7 2.3-4.7 2.3l-1 3-6.1 4.6-2 1.3-9.5 6.7C320 427.4 281.1 435.9 242 435h-2q-12.9-.3-25.5-2.8l-2.5-.5c-7.3-1.5-15-3.6-20-9.6l-1.6-2c-4.2-6.3-4.3-12.7-3.4-20.1 2.7-9.3 7.3-17.7 12-26.2l6.2-12.2c9-18.3 9-18.3 17.6-21.7 3.3-1 6-1.2 9.4-1.2"/>
  <path fill="#020202" d="M303 232.2c4.5 4 7 9.6 9.6 15q5.4 10.8 11 21.3A38 38 0 0 1 329 293a26 26 0 0 1-11 15 44 44 0 0 1-19 3.4h-2.8l-20.2-.1h-2.7c-8 0-15.7-.6-21.7-6.4a29 29 0 0 1-7-20.6c.8-6.1 3.5-11.4 6.3-16.9l9.9-20.2c7.8-16.1 7.8-16.1 16.2-19.2l2.2-.8c8.8-2.7 16.4 0 23.8 5"/>
  <path fill="#040404" d="M161 341.7a29 29 0 0 1 13 17.3c1 8.7.5 16.2-4.8 23.4-5.2 6.2-9.9 9.8-18.2 10.6-8.6.4-15.3-.6-22.1-6q-8.7-8.7-9.2-20.6a31 31 0 0 1 9.3-21.7c8.7-7.5 22-8.4 32-3"/>
  <path fill="#262626" d="m218 342 2 1-5.3 6.2C213 351 213 351 211 352c1.4-4.4 3.6-6.9 7-10"/>
  <path fill="#242424" d="M133 343c-1.4 3.2-3 5-5.6 7.3l-2 1.5-1.4 1.2c1.3-4.2 4-10 9-10"/>
  <path fill="#272727" d="m273 230 2 1-8 8c0-3 0-3 2.4-5.6l2.6-2.4z"/>
</svg>
